<svg xmlns="http://www.w3.org/2000/svg" viewBox="0 13.09000015258789 72.47999954223633 39.45000076293945" data-asc="1.0283203125" width="31" height="32"><defs/><rect width="100%" height="200%" fill="#0e5cc9" /><g fill="#ffffff"><g transform="translate(4, 0)"><path d="M13.96 34.77Q16.60 34.77 18.51 34.94Q20.41 35.11 21.53 35.25Q21.29 34.57 21.12 34.03Q20.95 33.50 20.80 33.11Q20.51 31.93 19.97 30.25Q19.43 28.56 18.77 26.68Q18.12 24.80 17.43 22.92Q16.75 21.04 16.11 19.48Q15.38 21.04 14.58 22.92Q13.77 24.80 13.01 26.68Q12.26 28.56 11.60 30.27Q10.94 31.98 10.55 33.15Q10.45 33.54 10.28 33.96Q10.11 34.38 9.91 34.91Q11.87 34.77 13.96 34.77M23.44 32.37Q23.68 33.30 24.29 35.01Q24.90 36.72 25.63 38.75Q26.37 40.77 27.17 42.87Q27.98 44.97 28.61 46.70Q29.25 48.44 29.69 49.54Q30.13 50.63 30.13 50.68Q30.22 50.88 30.22 51.17Q30.22 52.10 29.35 52.44Q29.20 52.54 28.86 52.54Q28.47 52.54 28.10 52.32Q27.73 52.10 27.59 51.66Q27.54 51.51 27.00 50.17Q26.46 48.83 25.71 46.88Q24.95 44.92 24.02 42.60Q23.10 40.28 22.22 38.18Q21.24 38.04 19.97 37.84Q18.90 37.74 17.36 37.62Q15.82 37.50 13.96 37.50Q12.70 37.50 11.35 37.57Q10.01 37.65 8.74 37.74Q7.86 39.84 6.84 42.24Q5.81 44.63 4.88 46.68Q3.96 48.73 3.32 50.17Q2.69 51.61 2.64 51.76Q2.25 52.54 1.37 52.54Q1.03 52.54 0.83 52.44Q0 52.05 0 51.17Q0 50.93 0.15 50.63Q0.15 50.59 0.68 49.39Q1.22 48.19 2.03 46.36Q2.83 44.53 3.81 42.31Q4.79 40.09 5.66 38.04Q4.30 38.18 3.42 38.31Q2.54 38.43 2.39 38.43Q1.86 38.43 1.49 38.09Q1.12 37.74 1.03 37.06Q1.03 36.52 1.34 36.16Q1.66 35.79 2.20 35.69Q2.29 35.69 3.59 35.52Q4.88 35.35 6.84 35.16Q7.23 34.28 7.50 33.54Q7.76 32.81 7.96 32.28Q8.40 30.96 9.25 28.78Q10.11 26.61 11.08 24.24Q12.06 21.88 13.06 19.65Q14.06 17.43 14.79 15.97Q14.89 15.19 15.58 14.84Q15.77 14.75 16.21 14.75Q16.60 14.75 16.89 14.89Q17.53 15.23 17.63 16.02Q18.26 17.48 19.12 19.73Q19.97 21.97 20.83 24.34Q21.68 26.71 22.36 28.88Q23.05 31.05 23.44 32.37ZM58.50 40.72Q59.18 39.36 59.96 37.13Q60.74 34.91 60.74 32.13Q60.74 29.98 60.11 27.78Q59.52 25.88 58.72 24.34Q57.91 22.80 56.98 21.61Q56.05 20.41 55.10 19.53Q54.15 18.65 53.32 18.07Q51.51 16.80 49.98 16.31Q48.44 15.82 47.41 15.82Q46.00 16.26 45.07 16.70Q44.14 17.14 44.09 17.14Q43.80 17.29 43.46 17.29Q42.82 17.29 42.48 16.85Q40.77 17.77 39.21 20.21Q37.65 22.66 36.62 26.17Q35.94 28.47 35.60 30.76Q35.25 33.06 35.25 35.25Q35.25 38.33 35.94 40.67Q36.43 42.24 37.16 43.41Q37.89 44.58 38.77 45.39Q39.65 46.19 40.60 46.70Q41.55 47.22 42.38 47.51Q44.63 48.34 47.17 48.34Q49.37 48.34 51.37 47.75Q52.88 47.31 54.86 45.56Q56.84 43.80 58.50 40.72M54.88 15.87Q55.86 16.55 56.96 17.58Q58.06 18.60 59.13 19.97Q60.21 21.34 61.13 23.07Q62.06 24.80 62.74 27.00Q63.48 29.49 63.48 32.13Q63.48 34.62 62.82 37.11Q62.16 39.60 60.89 41.99Q59.18 45.12 56.84 47.39Q54.49 49.66 52.15 50.34Q49.71 51.07 47.17 51.07Q44.24 51.07 41.46 50.10Q40.38 49.71 39.21 49.05Q38.04 48.39 36.91 47.36Q35.79 46.34 34.84 44.90Q33.89 43.46 33.30 41.46Q32.52 38.82 32.52 35.25Q32.52 32.91 32.89 30.40Q33.25 27.88 33.98 25.39Q35.35 20.70 37.57 17.72Q39.79 14.75 42.43 13.92Q43.16 13.72 43.95 13.72Q44.19 13.72 44.43 13.72Q44.68 13.72 44.92 13.82Q45.56 13.57 46.63 13.23Q47.12 13.09 47.80 13.09Q49.27 13.09 51.15 13.82Q53.03 14.55 54.88 15.87Z"/></g></g></svg>